Coordinates
version=1
nRows=11
nColumns=40
inDegrees=yes

Units are S.I. units (second, meters, Newtons, ...)
Angles are in degrees.

endheader
time	pelvis_tilt	pelvis_list	pelvis_rotation	pelvis_tx	pelvis_ty	pelvis_tz	hip_flexion_r	hip_adduction_r	hip_rotation_r	knee_angle_r	knee_angle_r_beta	ankle_angle_r	subtalar_angle_r	mtp_angle_r	hip_flexion_l	hip_adduction_l	hip_rotation_l	knee_angle_l	knee_angle_l_beta	ankle_angle_l	subtalar_angle_l	mtp_angle_l	lumbar_extension	lumbar_bending	lumbar_rotation	arm_flex_r	arm_add_r	arm_rot_r	elbow_flex_r	pro_sup_r	wrist_flex_r	wrist_dev_r	arm_flex_l	arm_add_l	arm_rot_l	elbow_flex_l	pro_sup_l	wrist_flex_l	wrist_dev_l
     31.95500000	     -4.30489253	     -4.40274684	      6.27495350	      1.03977511	      0.92520080	      0.44794557	      0.75456409	     -1.90611026	    -18.85448418	     20.45058891	     20.45058891	     14.77719863	     -4.16438985	     -5.65986487	     24.91419617	     -5.99973220	     -0.85638428	     24.00823403	     24.00823403	      5.93612581	    -13.69654300	      2.37502287	     -8.49488371	      4.57459957	      3.73069049	     23.92516938	    -15.03089859	     -5.32297367	     67.35911794	     45.33856674	      0.00000000	      0.00000000	      4.98579732	    -11.19994410	     -5.45008000	     36.61335148	     45.68123707	      0.00000000	      0.00000000
     31.96885714	     -4.23428906	     -4.40208050	      6.00733817	      1.04092120	      0.92582133	      0.44436466	      1.30732308	     -2.52575265	    -18.44116261	     22.39543776	     22.39543776	     13.72149218	     -5.13700960	     -7.96463277	     24.50864065	     -5.89955183	     -1.07396886	     24.47923066	     24.47923066	      7.13276304	    -13.56945463	      3.81584679	     -8.44878211	      4.58385737	      2.97336518	     24.17937978	    -14.47917797	     -4.03377612	     62.12413044	     45.46867521	      0.00000000	      0.00000000	      4.79221192	    -11.81564395	     -3.89966849	     37.50445375	     45.53328301	      0.00000000	      0.00000000
     31.98271429	     -4.11429725	     -4.33603362	      5.66931567	      1.04199250	      0.92639371	      0.44081406	      2.16431845	     -3.35124833	    -17.98279289	     25.05869663	     25.05869663	     13.20633209	     -5.81593271	     -8.68053174	     23.88480838	     -5.76786593	     -1.44125658	     24.63875669	     24.63875669	      7.62619153	    -13.62393805	      3.63866043	     -8.61298681	      4.55728111	      3.27893811	     22.69694907	    -14.72531188	     -3.80995504	     60.53109001	     45.50781064	      0.00000000	      0.00000000	      5.44255614	    -11.82613219	     -3.84149571	     38.00082926	     45.54153428	      0.00000000	      0.00000000
     31.99657143	     -4.14881029	     -4.36888704	      5.33547164	      1.04287506	      0.92679625	      0.43746429	      3.32944186	     -4.00622839	    -17.22003228	     27.74047751	     27.74047751	     11.51788294	     -7.58719221	    -11.61061788	     23.39835011	     -5.72146583	     -1.76175982	     24.68834709	     24.68834709	      8.15460172	    -13.53828530	      3.68030769	     -8.47039828	      4.56140332	      2.98433526	     22.45688448	    -14.38257858	     -2.99559330	     55.53537821	     45.64129052	      0.00000000	      0.00000000	      5.62785550	    -12.19506911	     -2.72138500	     38.64678971	     45.45150013	      0.00000000	      0.00000000
     32.01042857	     -4.10505512	     -4.35685788	      4.93179377	      1.04358055	      0.92706396	      0.43416066	      4.76276607	     -4.85264143	    -16.53905672	     31.10194614	     31.10194614	     10.33064279	     -8.74605968	    -12.88533649	     22.89984807	     -5.66280815	     -2.16464968	     24.87881810	     24.87881810	      8.61524191	    -13.59972632	      3.45612004	     -8.54950515	      4.57009433	      3.29913824	     21.04867739	    -14.67006046	     -2.66151425	     53.46309277	     45.69011817	      0.00000000	      0.00000000	      6.15299416	    -12.31976867	     -2.57311374	     39.45905129	     45.45879802	      0.00000000	      0.00000000
     32.02428571	     -3.95655509	     -4.21787709	      4.53711797	      1.04415418	      0.92746844	      0.43090468	      6.29346077	     -5.85239562	    -15.80316031	     34.77107348	     34.77107348	      9.01069164	     -9.85099116	    -13.65631563	     22.20310876	     -5.48237503	     -2.67376441	     24.92401042	     24.92401042	      9.04020140	    -13.57303502	      3.25734190	     -8.82220788	      4.46437388	      3.32662498	     19.69115195	    -14.70654310	     -2.42743631	     51.92065027	     45.72665301	      0.00000000	      0.00000000	      6.72666069	    -12.51271301	     -2.51822644	     39.97809545	     45.46741449	      0.00000000	      0.00000000
     32.03814286	     -4.05216206	     -4.17863025	      4.09542668	      1.04443863	      0.92748687	      0.42794704	      8.31398768	     -6.64263473	    -14.73634249	     38.58149415	     38.58149415	      7.16226550	    -11.53862013	    -14.48998847	     21.79517654	     -5.39515414	     -3.13501124	     24.94373951	     24.94373951	      9.43521365	    -13.56617158	      3.04670666	     -8.76464184	      4.42998017	      3.54987691	     18.25943005	    -14.82152224	     -2.11982867	     49.53852201	     45.78930356	      0.00000000	      0.00000000	      7.25152622	    -12.68403855	     -2.32429780	     40.71724441	     45.46386776	      0.00000000	      0.00000000
     32.05200000	     -3.93668452	     -4.10631738	      3.68477456	      1.04462865	      0.92770939	      0.42512303	     10.22790750	     -7.41102221	    -13.66559931	     42.46274668	     42.46274668	      5.14787378	    -13.09875953	    -14.91469677	     21.19473629	     -5.29179465	     -3.58489892	     25.02305352	     25.02305352	      9.83245599	    -13.58274863	      2.83994862	     -9.00828272	      4.34481271	      3.53444606	     17.01919997	    -14.79917169	     -1.86661414	     47.52812144	     45.84240080	      0.00000000	      0.00000000	      7.81859280	    -12.97949306	     -2.16660016	     41.39085268	     45.46326512	      0.00000000	      0.00000000
     32.06585714	     -3.92449282	     -4.21054292	      3.27717933	      1.04461164	      0.92782577	      0.42267010	     12.29533404	     -7.78553260	    -12.43315323	     46.09764935	     46.09764935	      2.45738442	    -15.28766387	    -15.94790714	     20.74475654	     -5.38382786	     -3.95247335	     25.09328874	     25.09328874	     10.22531232	    -13.53702286	      2.53139187	     -9.00578844	      4.44103479	      2.64104414	     17.86460417	    -13.96512159	     -1.09418973	     40.57684138	     46.04579869	      0.00000000	      0.00000000	      7.21057812	    -14.13571384	     -0.50474893	     43.70571569	     45.36214127	      0.00000000	      0.00000000
     32.07971429	     -3.86777975	     -4.14339043	      2.83438636	      1.04450015	      0.92795851	      0.42031085	     14.46069372	     -8.35128185	    -11.25001702	     49.87253318	     49.87253318	      0.41108256	    -16.41200214	    -15.20297105	     20.19855805	     -5.28964608	     -4.38623554	     25.10295875	     25.10295875	     10.59679085	    -13.58594468	      2.38299457	     -9.19776460	      4.37450647	      2.69948870	     16.26392460	    -14.02302787	     -0.95822760	     39.35830637	     46.07083207	      0.00000000	      0.00000000	      7.82308972	    -14.39291277	     -0.61210412	     44.41592009	     45.39634652	      0.00000000	      0.00000000
     32.09357143	     -3.75639620	     -4.09630221	      2.39606340	      1.04430053	      0.92817356	      0.41817644	     16.55474173	     -8.78280076	    -10.10338639	     53.38266700	     53.38266700	     -1.52614227	    -17.24199588	    -14.17566976	     19.61994834	     -5.23045749	     -4.81091051	     25.13962222	     25.13962222	     10.95739681	    -13.64052462	      2.24241439	     -9.46802519	      4.35324868	      2.64668290	     14.76938002	    -14.00887878	     -0.84578647	     38.17399106	     46.09808153	      0.00000000	      0.00000000	      8.44145400	    -14.76167249	     -0.70031783	     45.08470398	     45.42430847	      0.00000000	      0.00000000
